# MagicaVoxel @ Ephtracy

# group
o 

# material
mtllib LeverBase.mtl
usemtl palette

# normals
vn -1 0 0
vn 1 0 0
vn 0 0 1
vn 0 0 -1
vn 0 -1 0
vn 0 1 0

# texcoords
vt 0.970703 0.5
vt 0.974609 0.5
vt 0.978516 0.5

# verts
v 0 0.2 0
v 0 0.2 -1.6
v 0 0.3 -0.2
v 0 0.3 -0.5
v 0 0.3 -1.1
v 0 0.3 -1.4
v 0 0.4 0
v 0 0.4 -0.2
v 0 0.4 -0.7
v 0 0.4 -0.9
v 0 0.4 -1.4
v 0 0.4 -1.6
v 0 0.6 -0.5
v 0 0.6 -0.6
v 0 0.6 -0.7
v 0 0.6 -0.9
v 0 0.6 -1
v 0 0.6 -1.1
v 0 0.7 -0.6
v 0 0.7 -1
v 1.2 0.3 0
v 1.2 0.3 -0.1
v 1.2 0.3 -0.2
v 1.2 0.3 -1.4
v 1.2 0.3 -1.5
v 1.2 0.3 -1.6
v 1.2 0.4 0
v 1.2 0.4 -0.2
v 1.2 0.4 -1.4
v 1.2 0.4 -1.6
v 1.4 0.3 -0.5
v 1.4 0.3 -1.1
v 1.4 0.4 -0.7
v 1.4 0.4 -0.9
v 1.4 0.6 -0.5
v 1.4 0.6 -0.6
v 1.4 0.6 -0.7
v 1.4 0.6 -0.9
v 1.4 0.6 -1
v 1.4 0.6 -1.1
v 1.4 0.7 -0.6
v 1.4 0.7 -1
v 0.1 0.3 -0.5
v 0.1 0.3 -1.1
v 0.1 0.4 -0.7
v 0.1 0.4 -0.9
v 0.1 0.6 -0.5
v 0.1 0.6 -0.6
v 0.1 0.6 -0.7
v 0.1 0.6 -0.9
v 0.1 0.6 -1
v 0.1 0.6 -1.1
v 0.1 0.7 -0.6
v 0.1 0.7 -1
v 0.3 0.3 0
v 0.3 0.3 -0.1
v 0.3 0.3 -0.2
v 0.3 0.3 -1.4
v 0.3 0.3 -1.5
v 0.3 0.3 -1.6
v 0.3 0.4 0
v 0.3 0.4 -0.2
v 0.3 0.4 -1.4
v 0.3 0.4 -1.6
v 1.5 0.2 0
v 1.5 0.2 -1.6
v 1.5 0.3 -0.2
v 1.5 0.3 -0.5
v 1.5 0.3 -1.1
v 1.5 0.3 -1.4
v 1.5 0.4 0
v 1.5 0.4 -0.2
v 1.5 0.4 -0.7
v 1.5 0.4 -0.9
v 1.5 0.4 -1.4
v 1.5 0.4 -1.6
v 1.5 0.6 -0.5
v 1.5 0.6 -0.6
v 1.5 0.6 -0.7
v 1.5 0.6 -0.9
v 1.5 0.6 -1
v 1.5 0.6 -1.1
v 1.5 0.7 -0.6
v 1.5 0.7 -1
v 0 0.2 0
v 0 0.4 0
v 0.3 0.3 0
v 0.3 0.4 0
v 1.2 0.3 0
v 1.2 0.4 0
v 1.5 0.2 0
v 1.5 0.4 0
v 0 0.3 -0.5
v 0 0.6 -0.5
v 0.1 0.3 -0.5
v 0.1 0.6 -0.5
v 1.4 0.3 -0.5
v 1.4 0.6 -0.5
v 1.5 0.3 -0.5
v 1.5 0.6 -0.5
v 0 0.6 -0.6
v 0 0.7 -0.6
v 0.1 0.6 -0.6
v 0.1 0.7 -0.6
v 1.4 0.6 -0.6
v 1.4 0.7 -0.6
v 1.5 0.6 -0.6
v 1.5 0.7 -0.6
v 0 0.4 -0.9
v 0 0.6 -0.9
v 0.1 0.4 -0.9
v 0.1 0.6 -0.9
v 1.4 0.4 -0.9
v 1.4 0.6 -0.9
v 1.5 0.4 -0.9
v 1.5 0.6 -0.9
v 0 0.3 -1.4
v 0 0.4 -1.4
v 0.1 0.3 -1.4
v 0.2 0.3 -1.4
v 0.3 0.3 -1.4
v 0.3 0.4 -1.4
v 1.2 0.3 -1.4
v 1.2 0.4 -1.4
v 1.3 0.3 -1.4
v 1.4 0.3 -1.4
v 1.5 0.3 -1.4
v 1.5 0.4 -1.4
v 0 0.3 -0.2
v 0 0.4 -0.2
v 0.1 0.3 -0.2
v 0.2 0.3 -0.2
v 0.3 0.3 -0.2
v 0.3 0.4 -0.2
v 1.2 0.3 -0.2
v 1.2 0.4 -0.2
v 1.3 0.3 -0.2
v 1.4 0.3 -0.2
v 1.5 0.3 -0.2
v 1.5 0.4 -0.2
v 0 0.4 -0.7
v 0 0.6 -0.7
v 0.1 0.4 -0.7
v 0.1 0.6 -0.7
v 1.4 0.4 -0.7
v 1.4 0.6 -0.7
v 1.5 0.4 -0.7
v 1.5 0.6 -0.7
v 0 0.6 -1
v 0 0.7 -1
v 0.1 0.6 -1
v 0.1 0.7 -1
v 1.4 0.6 -1
v 1.4 0.7 -1
v 1.5 0.6 -1
v 1.5 0.7 -1
v 0 0.3 -1.1
v 0 0.6 -1.1
v 0.1 0.3 -1.1
v 0.1 0.6 -1.1
v 1.4 0.3 -1.1
v 1.4 0.6 -1.1
v 1.5 0.3 -1.1
v 1.5 0.6 -1.1
v 0 0.2 -1.6
v 0 0.4 -1.6
v 0.3 0.3 -1.6
v 0.3 0.4 -1.6
v 1.2 0.3 -1.6
v 1.2 0.4 -1.6
v 1.5 0.2 -1.6
v 1.5 0.4 -1.6
v 0 0.2 0
v 1.5 0.2 0
v 0.1 0.2 -0.1
v 1.4 0.2 -0.1
v 0.2 0.2 -0.2
v 1.3 0.2 -0.2
v 0.3 0.2 -0.3
v 1.2 0.2 -0.3
v 0.3 0.2 -1.3
v 1.2 0.2 -1.3
v 0.2 0.2 -1.4
v 1.3 0.2 -1.4
v 0.1 0.2 -1.5
v 1.4 0.2 -1.5
v 0 0.2 -1.6
v 1.5 0.2 -1.6
v 0 0.6 -0.7
v 0.1 0.6 -0.7
v 1.4 0.6 -0.7
v 1.5 0.6 -0.7
v 0 0.6 -0.9
v 0.1 0.6 -0.9
v 1.4 0.6 -0.9
v 1.5 0.6 -0.9
v 0.3 0.3 0
v 1.2 0.3 0
v 0.3 0.3 -0.1
v 1.2 0.3 -0.1
v 0 0.3 -0.2
v 0.1 0.3 -0.2
v 0.2 0.3 -0.2
v 0.3 0.3 -0.2
v 1.2 0.3 -0.2
v 1.3 0.3 -0.2
v 1.4 0.3 -0.2
v 1.5 0.3 -0.2
v 0.3 0.3 -0.3
v 1.2 0.3 -0.3
v 0 0.3 -0.5
v 0.1 0.3 -0.5
v 1.4 0.3 -0.5
v 1.5 0.3 -0.5
v 0 0.3 -1.1
v 0.1 0.3 -1.1
v 1.4 0.3 -1.1
v 1.5 0.3 -1.1
v 0.3 0.3 -1.3
v 1.2 0.3 -1.3
v 0 0.3 -1.4
v 0.1 0.3 -1.4
v 0.2 0.3 -1.4
v 0.3 0.3 -1.4
v 1.2 0.3 -1.4
v 1.3 0.3 -1.4
v 1.4 0.3 -1.4
v 1.5 0.3 -1.4
v 0.3 0.3 -1.5
v 1.2 0.3 -1.5
v 0.3 0.3 -1.6
v 1.2 0.3 -1.6
v 0 0.4 0
v 0.3 0.4 0
v 1.2 0.4 0
v 1.5 0.4 0
v 0 0.4 -0.2
v 0.3 0.4 -0.2
v 1.2 0.4 -0.2
v 1.5 0.4 -0.2
v 0 0.4 -0.7
v 0.1 0.4 -0.7
v 1.4 0.4 -0.7
v 1.5 0.4 -0.7
v 0 0.4 -0.9
v 0.1 0.4 -0.9
v 1.4 0.4 -0.9
v 1.5 0.4 -0.9
v 0 0.4 -1.4
v 0.3 0.4 -1.4
v 1.2 0.4 -1.4
v 1.5 0.4 -1.4
v 0 0.4 -1.6
v 0.3 0.4 -1.6
v 1.2 0.4 -1.6
v 1.5 0.4 -1.6
v 0 0.6 -0.5
v 0.1 0.6 -0.5
v 1.4 0.6 -0.5
v 1.5 0.6 -0.5
v 0 0.6 -0.6
v 0.1 0.6 -0.6
v 1.4 0.6 -0.6
v 1.5 0.6 -0.6
v 0 0.6 -1
v 0.1 0.6 -1
v 1.4 0.6 -1
v 1.5 0.6 -1
v 0 0.6 -1.1
v 0.1 0.6 -1.1
v 1.4 0.6 -1.1
v 1.5 0.6 -1.1
v 0 0.7 -0.6
v 0.1 0.7 -0.6
v 1.4 0.7 -0.6
v 1.5 0.7 -0.6
v 0 0.7 -1
v 0.1 0.7 -1
v 1.4 0.7 -1
v 1.5 0.7 -1

# faces
f 3/3/1 2/3/1 1/3/1
f 4/3/1 2/3/1 3/3/1
f 5/3/1 2/3/1 4/3/1
f 6/3/1 2/3/1 5/3/1
f 7/3/1 3/3/1 1/3/1
f 8/3/1 3/3/1 7/3/1
f 9/3/1 5/3/1 4/3/1
f 10/3/1 5/3/1 9/3/1
f 11/3/1 2/3/1 6/3/1
f 12/3/1 2/3/1 11/3/1
f 13/3/1 9/3/1 4/3/1
f 14/3/1 9/3/1 13/3/1
f 15/3/1 9/3/1 14/3/1
f 16/3/1 5/3/1 10/3/1
f 17/3/1 5/3/1 16/3/1
f 18/3/1 5/3/1 17/3/1
f 19/3/1 15/3/1 14/3/1
f 19/3/1 17/3/1 16/3/1
f 19/3/1 16/3/1 15/3/1
f 20/3/1 17/3/1 19/3/1
f 27/3/1 22/3/1 21/3/1
f 27/3/1 23/3/1 22/3/1
f 28/3/1 23/3/1 27/3/1
f 29/3/1 26/3/1 25/3/1
f 29/3/1 25/3/1 24/3/1
f 30/3/1 26/3/1 29/3/1
f 33/3/1 32/3/1 31/3/1
f 34/3/1 32/3/1 33/3/1
f 35/3/1 33/3/1 31/3/1
f 36/3/1 33/3/1 35/3/1
f 37/3/1 33/3/1 36/3/1
f 38/3/1 32/3/1 34/3/1
f 39/3/1 32/3/1 38/3/1
f 40/3/1 32/3/1 39/3/1
f 41/3/1 37/3/1 36/3/1
f 41/3/1 39/3/1 38/3/1
f 41/3/1 38/3/1 37/3/1
f 42/3/1 39/3/1 41/3/1
f 43/3/2 44/3/2 45/3/2
f 45/3/2 44/3/2 46/3/2
f 43/3/2 45/3/2 47/3/2
f 47/3/2 45/3/2 48/3/2
f 48/3/2 45/3/2 49/3/2
f 46/3/2 44/3/2 50/3/2
f 50/3/2 44/3/2 51/3/2
f 51/3/2 44/3/2 52/3/2
f 48/3/2 49/3/2 53/3/2
f 50/3/2 51/3/2 53/3/2
f 49/3/2 50/3/2 53/3/2
f 53/3/2 51/3/2 54/3/2
f 55/3/2 56/3/2 61/3/2
f 56/3/2 57/3/2 61/3/2
f 61/3/2 57/3/2 62/3/2
f 59/3/2 60/3/2 63/3/2
f 58/3/2 59/3/2 63/3/2
f 63/3/2 60/3/2 64/3/2
f 65/3/2 66/3/2 67/3/2
f 67/3/2 66/3/2 68/3/2
f 68/3/2 66/3/2 69/3/2
f 69/3/2 66/3/2 70/3/2
f 65/3/2 67/3/2 71/3/2
f 71/3/2 67/3/2 72/3/2
f 68/3/2 69/3/2 73/3/2
f 73/3/2 69/3/2 74/3/2
f 70/3/2 66/3/2 75/3/2
f 75/3/2 66/3/2 76/3/2
f 68/3/2 73/3/2 77/3/2
f 77/3/2 73/3/2 78/3/2
f 78/3/2 73/3/2 79/3/2
f 74/3/2 69/3/2 80/3/2
f 80/3/2 69/3/2 81/3/2
f 81/3/2 69/3/2 82/3/2
f 78/3/2 79/3/2 83/3/2
f 80/3/2 81/3/2 83/3/2
f 79/3/2 80/3/2 83/3/2
f 83/3/2 81/3/2 84/3/2
f 87/3/3 86/3/3 85/3/3
f 88/3/3 86/3/3 87/3/3
f 89/3/3 87/3/3 85/3/3
f 91/3/3 89/3/3 85/3/3
f 91/3/3 90/3/3 89/3/3
f 92/3/3 90/3/3 91/3/3
f 95/3/3 94/3/3 93/3/3
f 96/3/3 94/3/3 95/3/3
f 99/3/3 98/3/3 97/3/3
f 100/3/3 98/3/3 99/3/3
f 103/3/3 102/3/3 101/3/3
f 104/3/3 102/3/3 103/3/3
f 107/3/3 106/3/3 105/3/3
f 108/3/3 106/3/3 107/3/3
f 111/3/3 110/3/3 109/3/3
f 112/3/3 110/3/3 111/3/3
f 115/3/3 114/3/3 113/3/3
f 116/3/3 114/3/3 115/3/3
f 119/3/3 118/3/3 117/3/3
f 120/3/3 118/3/3 119/3/3
f 121/3/3 118/3/3 120/3/3
f 122/3/3 118/3/3 121/3/3
f 125/3/3 124/3/3 123/3/3
f 126/3/3 124/3/3 125/3/3
f 127/3/3 124/3/3 126/3/3
f 128/3/3 124/3/3 127/3/3
f 129/3/4 130/3/4 131/3/4
f 131/3/4 130/3/4 132/3/4
f 132/3/4 130/3/4 133/3/4
f 133/3/4 130/3/4 134/3/4
f 135/3/4 136/3/4 137/3/4
f 137/3/4 136/3/4 138/3/4
f 138/3/4 136/3/4 139/3/4
f 139/3/4 136/3/4 140/3/4
f 141/3/4 142/3/4 143/3/4
f 143/3/4 142/3/4 144/3/4
f 145/3/4 146/3/4 147/3/4
f 147/3/4 146/3/4 148/3/4
f 149/3/4 150/3/4 151/3/4
f 151/3/4 150/3/4 152/3/4
f 153/3/4 154/3/4 155/3/4
f 155/3/4 154/3/4 156/3/4
f 157/3/4 158/3/4 159/3/4
f 159/3/4 158/3/4 160/3/4
f 161/3/4 162/3/4 163/3/4
f 163/3/4 162/3/4 164/3/4
f 165/3/4 166/3/4 167/3/4
f 167/3/4 166/3/4 168/3/4
f 165/3/4 167/3/4 169/3/4
f 165/3/4 169/3/4 171/3/4
f 169/3/4 170/3/4 171/3/4
f 171/3/4 170/3/4 172/3/4
f 175/3/5 174/3/5 173/3/5
f 176/3/5 174/3/5 175/3/5
f 177/2/5 176/2/5 175/2/5
f 178/2/5 176/2/5 177/2/5
f 179/1/5 178/1/5 177/1/5
f 180/1/5 178/1/5 179/1/5
f 181/1/5 179/1/5 177/1/5
f 181/2/5 180/2/5 179/2/5
f 182/1/5 178/1/5 180/1/5
f 182/2/5 180/2/5 181/2/5
f 183/2/5 177/2/5 175/2/5
f 183/1/5 181/1/5 177/1/5
f 183/1/5 182/1/5 181/1/5
f 184/1/5 178/1/5 182/1/5
f 184/1/5 182/1/5 183/1/5
f 184/2/5 176/2/5 178/2/5
f 185/3/5 175/3/5 173/3/5
f 185/2/5 183/2/5 175/2/5
f 185/2/5 184/2/5 183/2/5
f 186/2/5 176/2/5 184/2/5
f 186/2/5 184/2/5 185/2/5
f 186/3/5 174/3/5 176/3/5
f 187/3/5 185/3/5 173/3/5
f 187/3/5 186/3/5 185/3/5
f 188/3/5 174/3/5 186/3/5
f 188/3/5 186/3/5 187/3/5
f 193/3/5 190/3/5 189/3/5
f 194/3/5 190/3/5 193/3/5
f 195/3/5 192/3/5 191/3/5
f 196/3/5 192/3/5 195/3/5
f 197/3/6 198/3/6 199/3/6
f 199/3/6 198/3/6 200/3/6
f 199/2/6 200/2/6 204/2/6
f 204/2/6 200/2/6 205/2/6
f 204/1/6 205/1/6 209/1/6
f 203/1/6 204/1/6 209/1/6
f 205/1/6 206/1/6 209/1/6
f 209/1/6 206/1/6 210/1/6
f 201/3/6 202/3/6 211/3/6
f 202/2/6 203/2/6 212/2/6
f 211/3/6 202/3/6 212/3/6
f 207/3/6 208/3/6 213/3/6
f 206/2/6 207/2/6 213/2/6
f 213/3/6 208/3/6 214/3/6
f 212/2/6 203/2/6 216/2/6
f 206/2/6 213/2/6 217/2/6
f 203/1/6 209/1/6 219/1/6
f 209/2/6 210/2/6 219/2/6
f 210/1/6 206/1/6 220/1/6
f 219/2/6 210/2/6 220/2/6
f 215/3/6 216/3/6 221/3/6
f 216/2/6 203/2/6 222/2/6
f 221/3/6 216/3/6 222/3/6
f 203/1/6 219/1/6 223/1/6
f 222/2/6 203/2/6 223/2/6
f 219/1/6 220/1/6 223/1/6
f 223/1/6 220/1/6 224/1/6
f 220/1/6 206/1/6 225/1/6
f 224/1/6 220/1/6 225/1/6
f 206/2/6 217/2/6 226/2/6
f 225/1/6 206/1/6 226/1/6
f 217/3/6 218/3/6 227/3/6
f 226/2/6 217/2/6 227/2/6
f 227/3/6 218/3/6 228/3/6
f 224/2/6 225/2/6 229/2/6
f 229/2/6 225/2/6 230/2/6
f 229/3/6 230/3/6 231/3/6
f 231/3/6 230/3/6 232/3/6
f 233/3/6 234/3/6 237/3/6
f 237/3/6 234/3/6 238/3/6
f 235/3/6 236/3/6 239/3/6
f 239/3/6 236/3/6 240/3/6
f 241/3/6 242/3/6 245/3/6
f 245/3/6 242/3/6 246/3/6
f 243/3/6 244/3/6 247/3/6
f 247/3/6 244/3/6 248/3/6
f 249/3/6 250/3/6 253/3/6
f 253/3/6 250/3/6 254/3/6
f 251/3/6 252/3/6 255/3/6
f 255/3/6 252/3/6 256/3/6
f 257/3/6 258/3/6 261/3/6
f 261/3/6 258/3/6 262/3/6
f 259/3/6 260/3/6 263/3/6
f 263/3/6 260/3/6 264/3/6
f 265/3/6 266/3/6 269/3/6
f 269/3/6 266/3/6 270/3/6
f 267/3/6 268/3/6 271/3/6
f 271/3/6 268/3/6 272/3/6
f 273/3/6 274/3/6 277/3/6
f 277/3/6 274/3/6 278/3/6
f 275/3/6 276/3/6 279/3/6
f 279/3/6 276/3/6 280/3/6
