# MagicaVoxel @ Ephtracy

# group
o 

# material
mtllib LeverHandle.mtl
usemtl palette

# normals
vn -1 0 0
vn 1 0 0
vn 0 0 1
vn 0 0 -1
vn 0 -1 0
vn 0 1 0

# texcoords
vt 0.865234 0.5
vt 0.869141 0.5
vt 0.978516 0.5
vt 0.982422 0.5

# verts
v -0.7 -0.2 -0.9
v -0.7 -0.2 -1.1
v -0.7 -0.1 0.1
v -0.7 -0.1 -0.1
v -0.7 -0.1 -0.8
v -0.7 -0.1 -0.9
v -0.7 -0.1 -1.1
v -0.7 -0.1 -1.2
v -0.7 0.1 0.1
v -0.7 0.1 -0.1
v -0.7 0.1 -0.8
v -0.7 0.1 -0.9
v -0.7 0.1 -1.1
v -0.7 0.1 -1.2
v -0.7 0.2 -0.9
v -0.7 0.2 -1.1
v -0.6 -0.1 -0.1
v -0.6 -0.1 -0.8
v -0.6 0.1 -0.1
v -0.6 0.1 -0.8
v 0.6 -0.2 -0.9
v 0.6 -0.2 -1.1
v 0.6 -0.1 -0.1
v 0.6 -0.1 -0.9
v 0.6 -0.1 -1.1
v 0.6 -0.1 -1.2
v 0.6 0.1 -0.1
v 0.6 0.1 -0.9
v 0.6 0.1 -1.1
v 0.6 0.1 -1.2
v 0.6 0.2 -0.9
v 0.6 0.2 -1.1
v -0.5 -0.2 -0.9
v -0.5 -0.2 -1.1
v -0.5 -0.1 -0.1
v -0.5 -0.1 -0.9
v -0.5 -0.1 -1.1
v -0.5 -0.1 -1.2
v -0.5 0.1 -0.1
v -0.5 0.1 -0.9
v -0.5 0.1 -1.1
v -0.5 0.1 -1.2
v -0.5 0.2 -0.9
v -0.5 0.2 -1.1
v 0.7 -0.1 -0.1
v 0.7 -0.1 -0.8
v 0.7 0.1 -0.1
v 0.7 0.1 -0.8
v 0.8 -0.2 -0.9
v 0.8 -0.2 -1.1
v 0.8 -0.1 0.1
v 0.8 -0.1 -0.1
v 0.8 -0.1 -0.8
v 0.8 -0.1 -0.9
v 0.8 -0.1 -1.1
v 0.8 -0.1 -1.2
v 0.8 0.1 0.1
v 0.8 0.1 -0.1
v 0.8 0.1 -0.8
v 0.8 0.1 -0.9
v 0.8 0.1 -1.1
v 0.8 0.1 -1.2
v 0.8 0.2 -0.9
v 0.8 0.2 -1.1
v -0.7 -0.1 0.1
v -0.7 0.1 0.1
v -0.5 -0.1 0.1
v -0.5 0.1 0.1
v 0.6 -0.1 0.1
v 0.6 0.1 0.1
v 0.8 -0.1 0.1
v 0.8 0.1 0.1
v -0.7 -0.1 -0.8
v -0.7 0.1 -0.8
v -0.6 -0.1 -0.8
v -0.6 0.1 -0.8
v 0.7 -0.1 -0.8
v 0.7 0.1 -0.8
v 0.8 -0.1 -0.8
v 0.8 0.1 -0.8
v -0.7 -0.2 -0.9
v -0.7 -0.1 -0.9
v -0.7 0.1 -0.9
v -0.7 0.2 -0.9
v -0.6 -0.1 -0.9
v -0.6 0.1 -0.9
v -0.5 -0.2 -0.9
v -0.5 -0.1 -0.9
v -0.5 0.1 -0.9
v -0.5 0.2 -0.9
v -0.3 -0.1 -0.9
v -0.3 0.1 -0.9
v -0.2 -0.1 -0.9
v -0.2 0.1 -0.9
v 0.3 -0.1 -0.9
v 0.3 0.1 -0.9
v 0.4 -0.1 -0.9
v 0.4 0.1 -0.9
v 0.6 -0.2 -0.9
v 0.6 -0.1 -0.9
v 0.6 0.1 -0.9
v 0.6 0.2 -0.9
v 0.7 -0.1 -0.9
v 0.7 0.1 -0.9
v 0.8 -0.2 -0.9
v 0.8 -0.1 -0.9
v 0.8 0.1 -0.9
v 0.8 0.2 -0.9
v -0.7 -0.1 -0.1
v -0.7 0.1 -0.1
v -0.6 -0.1 -0.1
v -0.6 0.1 -0.1
v -0.5 -0.1 -0.1
v -0.5 0.1 -0.1
v 0.6 -0.1 -0.1
v 0.6 0.1 -0.1
v 0.7 -0.1 -0.1
v 0.7 0.1 -0.1
v 0.8 -0.1 -0.1
v 0.8 0.1 -0.1
v -0.7 -0.2 -1.1
v -0.7 -0.1 -1.1
v -0.7 0.1 -1.1
v -0.7 0.2 -1.1
v -0.5 -0.2 -1.1
v -0.5 -0.1 -1.1
v -0.5 0.1 -1.1
v -0.5 0.2 -1.1
v -0.3 -0.1 -1.1
v -0.3 0.1 -1.1
v -0.2 -0.1 -1.1
v -0.2 0.1 -1.1
v 0.3 -0.1 -1.1
v 0.3 0.1 -1.1
v 0.4 -0.1 -1.1
v 0.4 0.1 -1.1
v 0.6 -0.2 -1.1
v 0.6 -0.1 -1.1
v 0.6 0.1 -1.1
v 0.6 0.2 -1.1
v 0.8 -0.2 -1.1
v 0.8 -0.1 -1.1
v 0.8 0.1 -1.1
v 0.8 0.2 -1.1
v -0.7 -0.1 -1.2
v -0.7 0.1 -1.2
v -0.5 -0.1 -1.2
v -0.5 0.1 -1.2
v 0.6 -0.1 -1.2
v 0.6 0.1 -1.2
v 0.8 -0.1 -1.2
v 0.8 0.1 -1.2
v -0.7 -0.2 -0.9
v -0.5 -0.2 -0.9
v 0.6 -0.2 -0.9
v 0.8 -0.2 -0.9
v -0.7 -0.2 -1.1
v -0.5 -0.2 -1.1
v 0.6 -0.2 -1.1
v 0.8 -0.2 -1.1
v -0.7 -0.1 0.1
v -0.5 -0.1 0.1
v 0.6 -0.1 0.1
v 0.8 -0.1 0.1
v -0.7 -0.1 -0.1
v -0.6 -0.1 -0.1
v -0.5 -0.1 -0.1
v 0.6 -0.1 -0.1
v 0.7 -0.1 -0.1
v 0.8 -0.1 -0.1
v -0.7 -0.1 -0.8
v -0.6 -0.1 -0.8
v 0.7 -0.1 -0.8
v 0.8 -0.1 -0.8
v -0.7 -0.1 -0.9
v -0.6 -0.1 -0.9
v -0.5 -0.1 -0.9
v -0.3 -0.1 -0.9
v -0.2 -0.1 -0.9
v 0.3 -0.1 -0.9
v 0.4 -0.1 -0.9
v 0.6 -0.1 -0.9
v 0.7 -0.1 -0.9
v 0.8 -0.1 -0.9
v -0.7 -0.1 -1.1
v -0.5 -0.1 -1.1
v -0.3 -0.1 -1.1
v -0.2 -0.1 -1.1
v 0.3 -0.1 -1.1
v 0.4 -0.1 -1.1
v 0.6 -0.1 -1.1
v 0.8 -0.1 -1.1
v -0.7 -0.1 -1.2
v -0.5 -0.1 -1.2
v 0.6 -0.1 -1.2
v 0.8 -0.1 -1.2
v -0.7 0.1 0.1
v -0.5 0.1 0.1
v 0.6 0.1 0.1
v 0.8 0.1 0.1
v -0.7 0.1 -0.1
v -0.6 0.1 -0.1
v -0.5 0.1 -0.1
v 0.6 0.1 -0.1
v 0.7 0.1 -0.1
v 0.8 0.1 -0.1
v -0.7 0.1 -0.8
v -0.6 0.1 -0.8
v 0.7 0.1 -0.8
v 0.8 0.1 -0.8
v -0.7 0.1 -0.9
v -0.6 0.1 -0.9
v -0.5 0.1 -0.9
v -0.3 0.1 -0.9
v -0.2 0.1 -0.9
v 0.3 0.1 -0.9
v 0.4 0.1 -0.9
v 0.6 0.1 -0.9
v 0.7 0.1 -0.9
v 0.8 0.1 -0.9
v -0.7 0.1 -1.1
v -0.5 0.1 -1.1
v -0.3 0.1 -1.1
v -0.2 0.1 -1.1
v 0.3 0.1 -1.1
v 0.4 0.1 -1.1
v 0.6 0.1 -1.1
v 0.8 0.1 -1.1
v -0.7 0.1 -1.2
v -0.5 0.1 -1.2
v 0.6 0.1 -1.2
v 0.8 0.1 -1.2
v -0.7 0.2 -0.9
v -0.5 0.2 -0.9
v 0.6 0.2 -0.9
v 0.8 0.2 -0.9
v -0.7 0.2 -1.1
v -0.5 0.2 -1.1
v 0.6 0.2 -1.1
v 0.8 0.2 -1.1

# faces
f 6/4/1 2/4/1 1/4/1
f 7/4/1 2/4/1 6/4/1
f 9/4/1 4/4/1 3/4/1
f 10/4/1 4/4/1 9/4/1
f 11/4/1 6/4/1 5/4/1
f 12/1/1 7/1/1 6/1/1
f 12/4/1 6/4/1 11/4/1
f 13/4/1 8/4/1 7/4/1
f 13/1/1 7/1/1 12/1/1
f 14/4/1 8/4/1 13/4/1
f 15/4/1 13/4/1 12/4/1
f 16/4/1 13/4/1 15/4/1
f 19/3/1 18/3/1 17/3/1
f 20/3/1 18/3/1 19/3/1
f 24/4/1 22/4/1 21/4/1
f 25/4/1 22/4/1 24/4/1
f 27/3/1 24/3/1 23/3/1
f 28/3/1 24/3/1 27/3/1
f 29/4/1 26/4/1 25/4/1
f 30/4/1 26/4/1 29/4/1
f 31/4/1 29/4/1 28/4/1
f 32/4/1 29/4/1 31/4/1
f 33/4/2 34/4/2 36/4/2
f 36/4/2 34/4/2 37/4/2
f 35/3/2 36/3/2 39/3/2
f 39/3/2 36/3/2 40/3/2
f 37/4/2 38/4/2 41/4/2
f 41/4/2 38/4/2 42/4/2
f 40/4/2 41/4/2 43/4/2
f 43/4/2 41/4/2 44/4/2
f 45/3/2 46/3/2 47/3/2
f 47/3/2 46/3/2 48/3/2
f 49/4/2 50/4/2 54/4/2
f 54/4/2 50/4/2 55/4/2
f 51/4/2 52/4/2 57/4/2
f 57/4/2 52/4/2 58/4/2
f 53/4/2 54/4/2 59/4/2
f 54/1/2 55/1/2 60/1/2
f 59/4/2 54/4/2 60/4/2
f 55/4/2 56/4/2 61/4/2
f 60/1/2 55/1/2 61/1/2
f 61/4/2 56/4/2 62/4/2
f 60/4/2 61/4/2 63/4/2
f 63/4/2 61/4/2 64/4/2
f 67/4/3 66/4/3 65/4/3
f 68/4/3 66/4/3 67/4/3
f 69/3/3 68/3/3 67/3/3
f 70/3/3 68/3/3 69/3/3
f 71/4/3 70/4/3 69/4/3
f 72/4/3 70/4/3 71/4/3
f 75/4/3 74/4/3 73/4/3
f 76/4/3 74/4/3 75/4/3
f 79/4/3 78/4/3 77/4/3
f 80/4/3 78/4/3 79/4/3
f 85/4/3 82/4/3 81/4/3
f 86/4/3 84/4/3 83/4/3
f 87/4/3 85/4/3 81/4/3
f 88/4/3 85/4/3 87/4/3
f 89/4/3 84/4/3 86/4/3
f 90/4/3 84/4/3 89/4/3
f 91/2/3 89/2/3 88/2/3
f 92/2/3 89/2/3 91/2/3
f 93/1/3 92/1/3 91/1/3
f 94/1/3 92/1/3 93/1/3
f 95/2/3 94/2/3 93/2/3
f 96/2/3 94/2/3 95/2/3
f 97/1/3 96/1/3 95/1/3
f 98/1/3 96/1/3 97/1/3
f 100/2/3 98/2/3 97/2/3
f 101/2/3 98/2/3 100/2/3
f 103/4/3 100/4/3 99/4/3
f 104/4/3 102/4/3 101/4/3
f 105/4/3 103/4/3 99/4/3
f 106/4/3 103/4/3 105/4/3
f 107/4/3 102/4/3 104/4/3
f 108/4/3 102/4/3 107/4/3
f 109/4/4 110/4/4 111/4/4
f 111/4/4 110/4/4 112/4/4
f 113/3/4 114/3/4 115/3/4
f 115/3/4 114/3/4 116/3/4
f 117/4/4 118/4/4 119/4/4
f 119/4/4 118/4/4 120/4/4
f 121/4/4 122/4/4 125/4/4
f 125/4/4 122/4/4 126/4/4
f 123/4/4 124/4/4 127/4/4
f 127/4/4 124/4/4 128/4/4
f 126/2/4 127/2/4 129/2/4
f 129/2/4 127/2/4 130/2/4
f 129/1/4 130/1/4 131/1/4
f 131/1/4 130/1/4 132/1/4
f 131/2/4 132/2/4 133/2/4
f 133/2/4 132/2/4 134/2/4
f 133/1/4 134/1/4 135/1/4
f 135/1/4 134/1/4 136/1/4
f 135/2/4 136/2/4 138/2/4
f 138/2/4 136/2/4 139/2/4
f 137/4/4 138/4/4 141/4/4
f 141/4/4 138/4/4 142/4/4
f 139/4/4 140/4/4 143/4/4
f 143/4/4 140/4/4 144/4/4
f 145/4/4 146/4/4 147/4/4
f 147/4/4 146/4/4 148/4/4
f 149/4/4 150/4/4 151/4/4
f 151/4/4 150/4/4 152/4/4
f 157/4/5 154/4/5 153/4/5
f 158/4/5 154/4/5 157/4/5
f 159/4/5 156/4/5 155/4/5
f 160/4/5 156/4/5 159/4/5
f 165/4/5 162/4/5 161/4/5
f 166/4/5 162/4/5 165/4/5
f 167/3/5 163/3/5 162/3/5
f 167/4/5 162/4/5 166/4/5
f 168/4/5 164/4/5 163/4/5
f 168/3/5 163/3/5 167/3/5
f 169/4/5 164/4/5 168/4/5
f 170/4/5 164/4/5 169/4/5
f 172/3/5 167/3/5 166/3/5
f 173/3/5 169/3/5 168/3/5
f 175/4/5 172/4/5 171/4/5
f 176/3/5 167/3/5 172/3/5
f 176/4/5 172/4/5 175/4/5
f 177/3/5 167/3/5 176/3/5
f 182/3/5 173/3/5 168/3/5
f 183/4/5 174/4/5 173/4/5
f 183/3/5 173/3/5 182/3/5
f 184/4/5 174/4/5 183/4/5
f 186/2/5 178/2/5 177/2/5
f 187/1/5 179/1/5 178/1/5
f 187/2/5 178/2/5 186/2/5
f 188/2/5 180/2/5 179/2/5
f 188/1/5 179/1/5 187/1/5
f 189/1/5 181/1/5 180/1/5
f 189/2/5 180/2/5 188/2/5
f 190/2/5 182/2/5 181/2/5
f 190/1/5 181/1/5 189/1/5
f 191/2/5 182/2/5 190/2/5
f 193/4/5 186/4/5 185/4/5
f 194/4/5 186/4/5 193/4/5
f 195/4/5 192/4/5 191/4/5
f 196/4/5 192/4/5 195/4/5
f 197/4/6 198/4/6 201/4/6
f 201/4/6 198/4/6 202/4/6
f 198/3/6 199/3/6 203/3/6
f 202/4/6 198/4/6 203/4/6
f 199/4/6 200/4/6 204/4/6
f 203/3/6 199/3/6 204/3/6
f 204/4/6 200/4/6 205/4/6
f 205/4/6 200/4/6 206/4/6
f 202/3/6 203/3/6 208/3/6
f 204/3/6 205/3/6 209/3/6
f 207/4/6 208/4/6 211/4/6
f 208/3/6 203/3/6 212/3/6
f 211/4/6 208/4/6 212/4/6
f 212/3/6 203/3/6 213/3/6
f 204/3/6 209/3/6 218/3/6
f 209/4/6 210/4/6 219/4/6
f 218/3/6 209/3/6 219/3/6
f 219/4/6 210/4/6 220/4/6
f 213/2/6 214/2/6 222/2/6
f 214/1/6 215/1/6 223/1/6
f 222/2/6 214/2/6 223/2/6
f 215/2/6 216/2/6 224/2/6
f 223/1/6 215/1/6 224/1/6
f 216/1/6 217/1/6 225/1/6
f 224/2/6 216/2/6 225/2/6
f 217/2/6 218/2/6 226/2/6
f 225/1/6 217/1/6 226/1/6
f 226/2/6 218/2/6 227/2/6
f 221/4/6 222/4/6 229/4/6
f 229/4/6 222/4/6 230/4/6
f 227/4/6 228/4/6 231/4/6
f 231/4/6 228/4/6 232/4/6
f 233/4/6 234/4/6 237/4/6
f 237/4/6 234/4/6 238/4/6
f 235/4/6 236/4/6 239/4/6
f 239/4/6 236/4/6 240/4/6
