# MagicaVoxel @ Ephtracy

# group
o 

# material
mtllib WindUpBase.mtl
usemtl palette

# normals
vn -1 0 0
vn 1 0 0
vn 0 0 1
vn 0 0 -1
vn 0 -1 0
vn 0 1 0

# texcoords
vt 0.970703 0.5
vt 0.974609 0.5
vt 0.982422 0.5

# verts
v 0.2 0.1 -0.4
v 0.2 0.1 -1.2
v 0.2 0.3 -0.4
v 0.2 0.3 -1.2
v 0.3 0.1 -0.3
v 0.3 0.1 -0.4
v 0.3 0.1 -1.2
v 0.3 0.1 -1.3
v 0.3 0.3 -0.3
v 0.3 0.3 -0.4
v 0.3 0.3 -1.2
v 0.3 0.3 -1.3
v 0.4 0.1 -0.2
v 0.4 0.1 -0.3
v 0.4 0.1 -1.3
v 0.4 0.1 -1.4
v 0.4 0.3 -0.2
v 0.4 0.3 -0.3
v 0.4 0.3 -1.3
v 0.4 0.3 -1.4
v 0.5 0.2 -0.7
v 0.5 0.2 -0.9
v 0.5 0.3 -0.7
v 0.5 0.3 -0.9
v 0.6 0.2 -0.6
v 0.6 0.2 -0.7
v 0.6 0.2 -0.9
v 0.6 0.2 -1
v 0.6 0.3 -0.6
v 0.6 0.3 -0.7
v 0.6 0.3 -0.9
v 0.6 0.3 -1
v 0.7 0.2 -0.5
v 0.7 0.2 -0.6
v 0.7 0.2 -1
v 0.7 0.2 -1.1
v 0.7 0.3 -0.5
v 0.7 0.3 -0.6
v 0.7 0.3 -1
v 0.7 0.3 -1.1
v 1.1 0.2 -0.3
v 1.1 0.2 -0.4
v 1.1 0.2 -1.2
v 1.1 0.2 -1.3
v 1.1 0.3 -0.3
v 1.1 0.3 -0.4
v 1.1 0.3 -1.2
v 1.1 0.3 -1.3
v 1.2 0.2 -0.4
v 1.2 0.2 -0.5
v 1.2 0.2 -1.1
v 1.2 0.2 -1.2
v 1.2 0.3 -0.4
v 1.2 0.3 -0.5
v 1.2 0.3 -1.1
v 1.2 0.3 -1.2
v 1.3 0.2 -0.5
v 1.3 0.2 -1.1
v 1.3 0.3 -0.5
v 1.3 0.3 -1.1
v 0.3 0.2 -0.5
v 0.3 0.2 -1.1
v 0.3 0.3 -0.5
v 0.3 0.3 -1.1
v 0.4 0.2 -0.4
v 0.4 0.2 -0.5
v 0.4 0.2 -1.1
v 0.4 0.2 -1.2
v 0.4 0.3 -0.4
v 0.4 0.3 -0.5
v 0.4 0.3 -1.1
v 0.4 0.3 -1.2
v 0.5 0.2 -0.3
v 0.5 0.2 -0.4
v 0.5 0.2 -1.2
v 0.5 0.2 -1.3
v 0.5 0.3 -0.3
v 0.5 0.3 -0.4
v 0.5 0.3 -1.2
v 0.5 0.3 -1.3
v 0.9 0.2 -0.5
v 0.9 0.2 -0.6
v 0.9 0.2 -1
v 0.9 0.2 -1.1
v 0.9 0.3 -0.5
v 0.9 0.3 -0.6
v 0.9 0.3 -1
v 0.9 0.3 -1.1
v 1 0.2 -0.6
v 1 0.2 -0.7
v 1 0.2 -0.9
v 1 0.2 -1
v 1 0.3 -0.6
v 1 0.3 -0.7
v 1 0.3 -0.9
v 1 0.3 -1
v 1.1 0.2 -0.7
v 1.1 0.2 -0.9
v 1.1 0.3 -0.7
v 1.1 0.3 -0.9
v 1.2 0.1 -0.2
v 1.2 0.1 -0.3
v 1.2 0.1 -1.3
v 1.2 0.1 -1.4
v 1.2 0.3 -0.2
v 1.2 0.3 -0.3
v 1.2 0.3 -1.3
v 1.2 0.3 -1.4
v 1.3 0.1 -0.3
v 1.3 0.1 -0.4
v 1.3 0.1 -1.2
v 1.3 0.1 -1.3
v 1.3 0.3 -0.3
v 1.3 0.3 -0.4
v 1.3 0.3 -1.2
v 1.3 0.3 -1.3
v 1.4 0.1 -0.4
v 1.4 0.1 -1.2
v 1.4 0.3 -0.4
v 1.4 0.3 -1.2
v 0.4 0.1 -0.2
v 0.4 0.3 -0.2
v 1.2 0.1 -0.2
v 1.2 0.3 -0.2
v 0.3 0.1 -0.3
v 0.3 0.3 -0.3
v 0.4 0.1 -0.3
v 0.4 0.3 -0.3
v 1.2 0.1 -0.3
v 1.2 0.3 -0.3
v 1.3 0.1 -0.3
v 1.3 0.3 -0.3
v 0.2 0.1 -0.4
v 0.2 0.3 -0.4
v 0.3 0.1 -0.4
v 0.3 0.3 -0.4
v 1.3 0.1 -0.4
v 1.3 0.3 -0.4
v 1.4 0.1 -0.4
v 1.4 0.3 -0.4
v 0.7 0.2 -0.5
v 0.7 0.3 -0.5
v 0.9 0.2 -0.5
v 0.9 0.3 -0.5
v 0.6 0.2 -0.6
v 0.6 0.3 -0.6
v 0.7 0.2 -0.6
v 0.7 0.3 -0.6
v 0.9 0.2 -0.6
v 0.9 0.3 -0.6
v 1 0.2 -0.6
v 1 0.3 -0.6
v 0.5 0.2 -0.7
v 0.5 0.3 -0.7
v 0.6 0.2 -0.7
v 0.6 0.3 -0.7
v 1 0.2 -0.7
v 1 0.3 -0.7
v 1.1 0.2 -0.7
v 1.1 0.3 -0.7
v 0.3 0.2 -1.1
v 0.3 0.3 -1.1
v 0.4 0.2 -1.1
v 0.4 0.3 -1.1
v 1.2 0.2 -1.1
v 1.2 0.3 -1.1
v 1.3 0.2 -1.1
v 1.3 0.3 -1.1
v 0.4 0.2 -1.2
v 0.4 0.3 -1.2
v 0.5 0.2 -1.2
v 0.5 0.3 -1.2
v 1.1 0.2 -1.2
v 1.1 0.3 -1.2
v 1.2 0.2 -1.2
v 1.2 0.3 -1.2
v 0.5 0.2 -1.3
v 0.5 0.3 -1.3
v 1.1 0.2 -1.3
v 1.1 0.3 -1.3
v 0.5 0.2 -0.3
v 0.5 0.3 -0.3
v 1.1 0.2 -0.3
v 1.1 0.3 -0.3
v 0.4 0.2 -0.4
v 0.4 0.3 -0.4
v 0.5 0.2 -0.4
v 0.5 0.3 -0.4
v 1.1 0.2 -0.4
v 1.1 0.3 -0.4
v 1.2 0.2 -0.4
v 1.2 0.3 -0.4
v 0.3 0.2 -0.5
v 0.3 0.3 -0.5
v 0.4 0.2 -0.5
v 0.4 0.3 -0.5
v 1.2 0.2 -0.5
v 1.2 0.3 -0.5
v 1.3 0.2 -0.5
v 1.3 0.3 -0.5
v 0.5 0.2 -0.9
v 0.5 0.3 -0.9
v 0.6 0.2 -0.9
v 0.6 0.3 -0.9
v 1 0.2 -0.9
v 1 0.3 -0.9
v 1.1 0.2 -0.9
v 1.1 0.3 -0.9
v 0.6 0.2 -1
v 0.6 0.3 -1
v 0.7 0.2 -1
v 0.7 0.3 -1
v 0.9 0.2 -1
v 0.9 0.3 -1
v 1 0.2 -1
v 1 0.3 -1
v 0.7 0.2 -1.1
v 0.7 0.3 -1.1
v 0.9 0.2 -1.1
v 0.9 0.3 -1.1
v 0.2 0.1 -1.2
v 0.2 0.3 -1.2
v 0.3 0.1 -1.2
v 0.3 0.3 -1.2
v 1.3 0.1 -1.2
v 1.3 0.3 -1.2
v 1.4 0.1 -1.2
v 1.4 0.3 -1.2
v 0.3 0.1 -1.3
v 0.3 0.3 -1.3
v 0.4 0.1 -1.3
v 0.4 0.3 -1.3
v 1.2 0.1 -1.3
v 1.2 0.3 -1.3
v 1.3 0.1 -1.3
v 1.3 0.3 -1.3
v 0.4 0.1 -1.4
v 0.4 0.3 -1.4
v 1.2 0.1 -1.4
v 1.2 0.3 -1.4
v 0.4 0.1 -0.2
v 1.2 0.1 -0.2
v 0.3 0.1 -0.3
v 0.4 0.1 -0.3
v 0.5 0.1 -0.3
v 1.1 0.1 -0.3
v 1.2 0.1 -0.3
v 1.3 0.1 -0.3
v 0.2 0.1 -0.4
v 0.3 0.1 -0.4
v 0.4 0.1 -0.4
v 0.5 0.1 -0.4
v 1.1 0.1 -0.4
v 1.2 0.1 -0.4
v 1.3 0.1 -0.4
v 1.4 0.1 -0.4
v 0.3 0.1 -0.5
v 0.4 0.1 -0.5
v 0.7 0.1 -0.5
v 0.9 0.1 -0.5
v 1.2 0.1 -0.5
v 1.3 0.1 -0.5
v 0.6 0.1 -0.6
v 0.7 0.1 -0.6
v 0.9 0.1 -0.6
v 1 0.1 -0.6
v 0.5 0.1 -0.7
v 0.6 0.1 -0.7
v 1 0.1 -0.7
v 1.1 0.1 -0.7
v 0.5 0.1 -0.9
v 0.6 0.1 -0.9
v 1 0.1 -0.9
v 1.1 0.1 -0.9
v 0.6 0.1 -1
v 0.7 0.1 -1
v 0.9 0.1 -1
v 1 0.1 -1
v 0.3 0.1 -1.1
v 0.4 0.1 -1.1
v 0.7 0.1 -1.1
v 0.9 0.1 -1.1
v 1.2 0.1 -1.1
v 1.3 0.1 -1.1
v 0.2 0.1 -1.2
v 0.3 0.1 -1.2
v 0.4 0.1 -1.2
v 0.5 0.1 -1.2
v 1.1 0.1 -1.2
v 1.2 0.1 -1.2
v 1.3 0.1 -1.2
v 1.4 0.1 -1.2
v 0.3 0.1 -1.3
v 0.4 0.1 -1.3
v 0.5 0.1 -1.3
v 1.1 0.1 -1.3
v 1.2 0.1 -1.3
v 1.3 0.1 -1.3
v 0.4 0.1 -1.4
v 1.2 0.1 -1.4
v 0.5 0.2 -0.3
v 1.1 0.2 -0.3
v 0.4 0.2 -0.4
v 0.5 0.2 -0.4
v 1.1 0.2 -0.4
v 1.2 0.2 -0.4
v 0.3 0.2 -0.5
v 0.4 0.2 -0.5
v 0.7 0.2 -0.5
v 0.9 0.2 -0.5
v 1.2 0.2 -0.5
v 1.3 0.2 -0.5
v 0.6 0.2 -0.6
v 0.7 0.2 -0.6
v 0.9 0.2 -0.6
v 1 0.2 -0.6
v 0.5 0.2 -0.7
v 0.6 0.2 -0.7
v 1 0.2 -0.7
v 1.1 0.2 -0.7
v 0.5 0.2 -0.9
v 0.6 0.2 -0.9
v 1 0.2 -0.9
v 1.1 0.2 -0.9
v 0.6 0.2 -1
v 0.7 0.2 -1
v 0.9 0.2 -1
v 1 0.2 -1
v 0.3 0.2 -1.1
v 0.4 0.2 -1.1
v 0.7 0.2 -1.1
v 0.9 0.2 -1.1
v 1.2 0.2 -1.1
v 1.3 0.2 -1.1
v 0.4 0.2 -1.2
v 0.5 0.2 -1.2
v 1.1 0.2 -1.2
v 1.2 0.2 -1.2
v 0.5 0.2 -1.3
v 1.1 0.2 -1.3
v 0.4 0.3 -0.2
v 1.2 0.3 -0.2
v 0.3 0.3 -0.3
v 0.4 0.3 -0.3
v 0.5 0.3 -0.3
v 1.1 0.3 -0.3
v 1.2 0.3 -0.3
v 1.3 0.3 -0.3
v 0.2 0.3 -0.4
v 0.3 0.3 -0.4
v 0.4 0.3 -0.4
v 0.5 0.3 -0.4
v 1.1 0.3 -0.4
v 1.2 0.3 -0.4
v 1.3 0.3 -0.4
v 1.4 0.3 -0.4
v 0.3 0.3 -0.5
v 0.4 0.3 -0.5
v 0.7 0.3 -0.5
v 0.9 0.3 -0.5
v 1.2 0.3 -0.5
v 1.3 0.3 -0.5
v 0.6 0.3 -0.6
v 0.7 0.3 -0.6
v 0.9 0.3 -0.6
v 1 0.3 -0.6
v 0.5 0.3 -0.7
v 0.6 0.3 -0.7
v 1 0.3 -0.7
v 1.1 0.3 -0.7
v 0.5 0.3 -0.9
v 0.6 0.3 -0.9
v 1 0.3 -0.9
v 1.1 0.3 -0.9
v 0.6 0.3 -1
v 0.7 0.3 -1
v 0.9 0.3 -1
v 1 0.3 -1
v 0.3 0.3 -1.1
v 0.4 0.3 -1.1
v 0.7 0.3 -1.1
v 0.9 0.3 -1.1
v 1.2 0.3 -1.1
v 1.3 0.3 -1.1
v 0.2 0.3 -1.2
v 0.3 0.3 -1.2
v 0.4 0.3 -1.2
v 0.5 0.3 -1.2
v 1.1 0.3 -1.2
v 1.2 0.3 -1.2
v 1.3 0.3 -1.2
v 1.4 0.3 -1.2
v 0.3 0.3 -1.3
v 0.4 0.3 -1.3
v 0.5 0.3 -1.3
v 1.1 0.3 -1.3
v 1.2 0.3 -1.3
v 1.3 0.3 -1.3
v 0.4 0.3 -1.4
v 1.2 0.3 -1.4

# faces
f 3/3/1 2/3/1 1/3/1
f 4/3/1 2/3/1 3/3/1
f 9/3/1 6/3/1 5/3/1
f 10/3/1 6/3/1 9/3/1
f 11/3/1 8/3/1 7/3/1
f 12/3/1 8/3/1 11/3/1
f 17/3/1 14/3/1 13/3/1
f 18/3/1 14/3/1 17/3/1
f 19/3/1 16/3/1 15/3/1
f 20/3/1 16/3/1 19/3/1
f 23/1/1 22/1/1 21/1/1
f 24/1/1 22/1/1 23/1/1
f 29/1/1 26/1/1 25/1/1
f 30/1/1 26/1/1 29/1/1
f 31/1/1 28/1/1 27/1/1
f 32/1/1 28/1/1 31/1/1
f 37/1/1 34/1/1 33/1/1
f 38/1/1 34/1/1 37/1/1
f 39/1/1 36/1/1 35/1/1
f 40/1/1 36/1/1 39/1/1
f 45/3/1 42/3/1 41/3/1
f 46/3/1 42/3/1 45/3/1
f 47/3/1 44/3/1 43/3/1
f 48/3/1 44/3/1 47/3/1
f 53/3/1 50/3/1 49/3/1
f 54/3/1 50/3/1 53/3/1
f 55/3/1 52/3/1 51/3/1
f 56/3/1 52/3/1 55/3/1
f 59/3/1 58/3/1 57/3/1
f 60/3/1 58/3/1 59/3/1
f 61/3/2 62/3/2 63/3/2
f 63/3/2 62/3/2 64/3/2
f 65/3/2 66/3/2 69/3/2
f 69/3/2 66/3/2 70/3/2
f 67/3/2 68/3/2 71/3/2
f 71/3/2 68/3/2 72/3/2
f 73/3/2 74/3/2 77/3/2
f 77/3/2 74/3/2 78/3/2
f 75/3/2 76/3/2 79/3/2
f 79/3/2 76/3/2 80/3/2
f 81/1/2 82/1/2 85/1/2
f 85/1/2 82/1/2 86/1/2
f 83/1/2 84/1/2 87/1/2
f 87/1/2 84/1/2 88/1/2
f 89/1/2 90/1/2 93/1/2
f 93/1/2 90/1/2 94/1/2
f 91/1/2 92/1/2 95/1/2
f 95/1/2 92/1/2 96/1/2
f 97/1/2 98/1/2 99/1/2
f 99/1/2 98/1/2 100/1/2
f 101/3/2 102/3/2 105/3/2
f 105/3/2 102/3/2 106/3/2
f 103/3/2 104/3/2 107/3/2
f 107/3/2 104/3/2 108/3/2
f 109/3/2 110/3/2 113/3/2
f 113/3/2 110/3/2 114/3/2
f 111/3/2 112/3/2 115/3/2
f 115/3/2 112/3/2 116/3/2
f 117/3/2 118/3/2 119/3/2
f 119/3/2 118/3/2 120/3/2
f 123/3/3 122/3/3 121/3/3
f 124/3/3 122/3/3 123/3/3
f 127/3/3 126/3/3 125/3/3
f 128/3/3 126/3/3 127/3/3
f 131/3/3 130/3/3 129/3/3
f 132/3/3 130/3/3 131/3/3
f 135/3/3 134/3/3 133/3/3
f 136/3/3 134/3/3 135/3/3
f 139/3/3 138/3/3 137/3/3
f 140/3/3 138/3/3 139/3/3
f 143/1/3 142/1/3 141/1/3
f 144/1/3 142/1/3 143/1/3
f 147/1/3 146/1/3 145/1/3
f 148/1/3 146/1/3 147/1/3
f 151/1/3 150/1/3 149/1/3
f 152/1/3 150/1/3 151/1/3
f 155/1/3 154/1/3 153/1/3
f 156/1/3 154/1/3 155/1/3
f 159/1/3 158/1/3 157/1/3
f 160/1/3 158/1/3 159/1/3
f 163/3/3 162/3/3 161/3/3
f 164/3/3 162/3/3 163/3/3
f 167/3/3 166/3/3 165/3/3
f 168/3/3 166/3/3 167/3/3
f 171/3/3 170/3/3 169/3/3
f 172/3/3 170/3/3 171/3/3
f 175/3/3 174/3/3 173/3/3
f 176/3/3 174/3/3 175/3/3
f 179/3/3 178/3/3 177/3/3
f 180/3/3 178/3/3 179/3/3
f 181/3/4 182/3/4 183/3/4
f 183/3/4 182/3/4 184/3/4
f 185/3/4 186/3/4 187/3/4
f 187/3/4 186/3/4 188/3/4
f 189/3/4 190/3/4 191/3/4
f 191/3/4 190/3/4 192/3/4
f 193/3/4 194/3/4 195/3/4
f 195/3/4 194/3/4 196/3/4
f 197/3/4 198/3/4 199/3/4
f 199/3/4 198/3/4 200/3/4
f 201/1/4 202/1/4 203/1/4
f 203/1/4 202/1/4 204/1/4
f 205/1/4 206/1/4 207/1/4
f 207/1/4 206/1/4 208/1/4
f 209/1/4 210/1/4 211/1/4
f 211/1/4 210/1/4 212/1/4
f 213/1/4 214/1/4 215/1/4
f 215/1/4 214/1/4 216/1/4
f 217/1/4 218/1/4 219/1/4
f 219/1/4 218/1/4 220/1/4
f 221/3/4 222/3/4 223/3/4
f 223/3/4 222/3/4 224/3/4
f 225/3/4 226/3/4 227/3/4
f 227/3/4 226/3/4 228/3/4
f 229/3/4 230/3/4 231/3/4
f 231/3/4 230/3/4 232/3/4
f 233/3/4 234/3/4 235/3/4
f 235/3/4 234/3/4 236/3/4
f 237/3/4 238/3/4 239/3/4
f 239/3/4 238/3/4 240/3/4
f 244/3/5 242/3/5 241/3/5
f 245/3/5 242/3/5 244/3/5
f 246/3/5 242/3/5 245/3/5
f 247/3/5 242/3/5 246/3/5
f 250/3/5 244/3/5 243/3/5
f 250/3/5 245/3/5 244/3/5
f 251/3/5 245/3/5 250/3/5
f 252/2/5 246/2/5 245/2/5
f 252/3/5 245/3/5 251/3/5
f 253/3/5 248/3/5 247/3/5
f 253/2/5 246/2/5 252/2/5
f 253/3/5 247/3/5 246/3/5
f 254/3/5 248/3/5 253/3/5
f 255/3/5 248/3/5 254/3/5
f 257/3/5 250/3/5 249/3/5
f 257/3/5 251/3/5 250/3/5
f 258/2/5 252/2/5 251/2/5
f 258/3/5 251/3/5 257/3/5
f 258/2/5 253/2/5 252/2/5
f 258/2/5 254/2/5 253/2/5
f 259/2/5 254/2/5 258/2/5
f 260/2/5 254/2/5 259/2/5
f 261/3/5 256/3/5 255/3/5
f 261/2/5 254/2/5 260/2/5
f 261/3/5 255/3/5 254/3/5
f 262/3/5 256/3/5 261/3/5
f 263/2/5 259/2/5 258/2/5
f 263/2/5 258/2/5 257/2/5
f 264/3/5 260/3/5 259/3/5
f 264/2/5 259/2/5 263/2/5
f 265/2/5 262/2/5 261/2/5
f 265/3/5 260/3/5 264/3/5
f 265/2/5 261/2/5 260/2/5
f 266/2/5 262/2/5 265/2/5
f 267/2/5 263/2/5 257/2/5
f 268/3/5 264/3/5 263/3/5
f 268/2/5 263/2/5 267/2/5
f 268/3/5 265/3/5 264/3/5
f 268/3/5 266/3/5 265/3/5
f 269/2/5 262/2/5 266/2/5
f 269/3/5 266/3/5 268/3/5
f 270/2/5 262/2/5 269/2/5
f 271/3/5 268/3/5 267/3/5
f 271/2/5 267/2/5 257/2/5
f 271/3/5 270/3/5 269/3/5
f 271/3/5 269/3/5 268/3/5
f 272/3/5 270/3/5 271/3/5
f 273/3/5 270/3/5 272/3/5
f 274/2/5 262/2/5 270/2/5
f 274/3/5 270/3/5 273/3/5
f 275/3/5 273/3/5 272/3/5
f 275/2/5 272/2/5 271/2/5
f 276/3/5 273/3/5 275/3/5
f 277/3/5 273/3/5 276/3/5
f 278/2/5 274/2/5 273/2/5
f 278/3/5 273/3/5 277/3/5
f 279/3/5 257/3/5 249/3/5
f 279/2/5 271/2/5 257/2/5
f 279/2/5 275/2/5 271/2/5
f 279/2/5 276/2/5 275/2/5
f 280/2/5 276/2/5 279/2/5
f 281/3/5 277/3/5 276/3/5
f 281/2/5 276/2/5 280/2/5
f 282/2/5 278/2/5 277/2/5
f 282/3/5 277/3/5 281/3/5
f 283/2/5 274/2/5 278/2/5
f 283/2/5 278/2/5 282/2/5
f 283/2/5 262/2/5 274/2/5
f 284/3/5 256/3/5 262/3/5
f 284/2/5 262/2/5 283/2/5
f 285/3/5 279/3/5 249/3/5
f 285/3/5 280/3/5 279/3/5
f 286/3/5 280/3/5 285/3/5
f 287/2/5 282/2/5 281/2/5
f 287/3/5 280/3/5 286/3/5
f 287/2/5 283/2/5 282/2/5
f 287/2/5 281/2/5 280/2/5
f 288/2/5 283/2/5 287/2/5
f 289/2/5 283/2/5 288/2/5
f 290/3/5 284/3/5 283/3/5
f 290/2/5 283/2/5 289/2/5
f 291/3/5 256/3/5 284/3/5
f 291/3/5 284/3/5 290/3/5
f 292/3/5 256/3/5 291/3/5
f 293/3/5 287/3/5 286/3/5
f 293/3/5 288/3/5 287/3/5
f 294/3/5 288/3/5 293/3/5
f 295/2/5 289/2/5 288/2/5
f 295/3/5 288/3/5 294/3/5
f 296/3/5 290/3/5 289/3/5
f 296/2/5 289/2/5 295/2/5
f 296/3/5 291/3/5 290/3/5
f 297/3/5 291/3/5 296/3/5
f 298/3/5 291/3/5 297/3/5
f 299/3/5 295/3/5 294/3/5
f 299/3/5 297/3/5 296/3/5
f 299/3/5 296/3/5 295/3/5
f 300/3/5 297/3/5 299/3/5
f 301/2/6 302/2/6 304/2/6
f 304/2/6 302/2/6 305/2/6
f 303/2/6 304/2/6 308/2/6
f 305/2/6 306/2/6 308/2/6
f 304/2/6 305/2/6 308/2/6
f 308/2/6 306/2/6 309/2/6
f 309/2/6 306/2/6 310/2/6
f 310/2/6 306/2/6 311/2/6
f 307/2/6 308/2/6 313/2/6
f 308/2/6 309/2/6 313/2/6
f 313/2/6 309/2/6 314/2/6
f 311/2/6 312/2/6 315/2/6
f 310/2/6 311/2/6 315/2/6
f 315/2/6 312/2/6 316/2/6
f 307/2/6 313/2/6 317/2/6
f 317/2/6 313/2/6 318/2/6
f 316/2/6 312/2/6 319/2/6
f 319/2/6 312/2/6 320/2/6
f 307/2/6 317/2/6 321/2/6
f 320/2/6 312/2/6 324/2/6
f 321/2/6 322/2/6 325/2/6
f 323/2/6 324/2/6 328/2/6
f 325/2/6 326/2/6 329/2/6
f 307/2/6 321/2/6 329/2/6
f 321/2/6 325/2/6 329/2/6
f 329/2/6 326/2/6 330/2/6
f 330/2/6 326/2/6 331/2/6
f 327/2/6 328/2/6 332/2/6
f 328/2/6 324/2/6 333/2/6
f 324/2/6 312/2/6 333/2/6
f 332/2/6 328/2/6 333/2/6
f 333/2/6 312/2/6 334/2/6
f 330/2/6 331/2/6 335/2/6
f 331/2/6 332/2/6 335/2/6
f 332/2/6 333/2/6 335/2/6
f 335/2/6 333/2/6 336/2/6
f 336/2/6 333/2/6 337/2/6
f 337/2/6 333/2/6 338/2/6
f 336/2/6 337/2/6 339/2/6
f 339/2/6 337/2/6 340/2/6
f 341/3/6 342/3/6 344/3/6
f 344/3/6 342/3/6 345/3/6
f 345/3/6 342/3/6 346/3/6
f 346/3/6 342/3/6 347/3/6
f 343/3/6 344/3/6 350/3/6
f 344/3/6 345/3/6 350/3/6
f 350/3/6 345/3/6 351/3/6
f 351/3/6 345/3/6 352/3/6
f 346/3/6 347/3/6 353/3/6
f 347/3/6 348/3/6 353/3/6
f 353/3/6 348/3/6 354/3/6
f 354/3/6 348/3/6 355/3/6
f 350/3/6 351/3/6 357/3/6
f 349/3/6 350/3/6 357/3/6
f 357/3/6 351/3/6 358/3/6
f 355/3/6 356/3/6 361/3/6
f 354/3/6 355/3/6 361/3/6
f 361/3/6 356/3/6 362/3/6
f 359/1/6 360/1/6 364/1/6
f 364/1/6 360/1/6 365/1/6
f 363/1/6 364/1/6 368/1/6
f 365/1/6 366/1/6 368/1/6
f 364/1/6 365/1/6 368/1/6
f 368/1/6 366/1/6 369/1/6
f 367/1/6 368/1/6 371/1/6
f 369/1/6 370/1/6 371/1/6
f 368/1/6 369/1/6 371/1/6
f 371/1/6 370/1/6 372/1/6
f 372/1/6 370/1/6 373/1/6
f 373/1/6 370/1/6 374/1/6
f 372/1/6 373/1/6 375/1/6
f 375/1/6 373/1/6 376/1/6
f 376/1/6 373/1/6 377/1/6
f 377/1/6 373/1/6 378/1/6
f 349/3/6 357/3/6 379/3/6
f 376/1/6 377/1/6 381/1/6
f 381/1/6 377/1/6 382/1/6
f 362/3/6 356/3/6 384/3/6
f 349/3/6 379/3/6 385/3/6
f 379/3/6 380/3/6 385/3/6
f 385/3/6 380/3/6 386/3/6
f 386/3/6 380/3/6 387/3/6
f 383/3/6 384/3/6 390/3/6
f 384/3/6 356/3/6 391/3/6
f 390/3/6 384/3/6 391/3/6
f 391/3/6 356/3/6 392/3/6
f 387/3/6 388/3/6 393/3/6
f 386/3/6 387/3/6 393/3/6
f 393/3/6 388/3/6 394/3/6
f 394/3/6 388/3/6 395/3/6
f 389/3/6 390/3/6 396/3/6
f 390/3/6 391/3/6 396/3/6
f 396/3/6 391/3/6 397/3/6
f 397/3/6 391/3/6 398/3/6
f 394/3/6 395/3/6 399/3/6
f 396/3/6 397/3/6 399/3/6
f 395/3/6 396/3/6 399/3/6
f 399/3/6 397/3/6 400/3/6
