# MagicaVoxel @ Ephtracy

# group
o 

# material
mtllib WindUp.mtl
usemtl palette

# normals
vn -1 0 0
vn 1 0 0
vn 0 0 1
vn 0 0 -1
vn 0 -1 0
vn 0 1 0

# texcoords
vt 0.861328 0.5
vt 0.970703 0.5
vt 0.978516 0.5
vt 0.986328 0.5

# verts
v 0 0.8 -0.6
v 0 0.8 -0.8
v 0 0.9 -0.6
v 0 0.9 -0.8
v 0.1 0.7 -0.5
v 0.1 0.7 -0.7
v 0.1 0.8 -0.5
v 0.1 0.8 -0.6
v 0.1 0.8 -0.7
v 0.2 0.7 -0.4
v 0.2 0.7 -0.5
v 0.2 0.8 -0.4
v 0.2 0.8 -0.5
v 0.5 0.7 -0.5
v 0.5 0.7 -0.6
v 0.5 0.8 -0.5
v 0.5 0.8 -0.6
v 0.6 0.7 -0.6
v 0.6 0.7 -0.7
v 0.6 0.8 -0.6
v 0.6 0.8 -0.7
v 0.7 0.3 -0.7
v 0.7 0.3 -0.9
v 0.7 0.7 -0.7
v 0.7 0.7 -0.9
v 0.7 0.8 -0.7
v 0.7 0.8 -0.9
v 0.7 0.9 -0.7
v 0.7 0.9 -0.9
v 0.2 0.7 -0.6
v 0.2 0.7 -0.7
v 0.2 0.8 -0.6
v 0.2 0.8 -0.7
v 0.2 0.8 -0.8
v 0.2 0.9 -0.6
v 0.2 0.9 -0.8
v 0.3 0.7 -0.5
v 0.3 0.7 -0.6
v 0.3 0.8 -0.5
v 0.3 0.8 -0.6
v 0.6 0.7 -0.4
v 0.6 0.7 -0.5
v 0.6 0.8 -0.4
v 0.6 0.8 -0.5
v 0.7 0.7 -0.5
v 0.7 0.7 -0.6
v 0.7 0.8 -0.5
v 0.7 0.8 -0.6
v 0.8 0.7 -0.6
v 0.8 0.7 -0.7
v 0.8 0.8 -0.6
v 0.8 0.8 -0.7
v 0.9 0.3 -0.7
v 0.9 0.3 -0.9
v 0.9 0.7 -0.7
v 0.9 0.7 -0.9
v 0.9 0.8 -0.7
v 0.9 0.8 -0.9
v 0.9 0.9 -0.7
v 0.9 0.9 -0.9
v 0.2 0.7 -0.4
v 0.2 0.8 -0.4
v 0.6 0.7 -0.4
v 0.6 0.8 -0.4
v 0.1 0.7 -0.5
v 0.1 0.8 -0.5
v 0.2 0.7 -0.5
v 0.2 0.8 -0.5
v 0.6 0.7 -0.5
v 0.6 0.8 -0.5
v 0.7 0.7 -0.5
v 0.7 0.8 -0.5
v 0 0.8 -0.6
v 0 0.9 -0.6
v 0.1 0.8 -0.6
v 0.2 0.8 -0.6
v 0.2 0.9 -0.6
v 0.7 0.7 -0.6
v 0.7 0.8 -0.6
v 0.8 0.7 -0.6
v 0.8 0.8 -0.6
v 0.7 0.3 -0.7
v 0.7 0.7 -0.7
v 0.7 0.8 -0.7
v 0.7 0.9 -0.7
v 0.8 0.7 -0.7
v 0.8 0.8 -0.7
v 0.9 0.3 -0.7
v 0.9 0.7 -0.7
v 0.9 0.8 -0.7
v 0.9 0.9 -0.7
v 0.3 0.7 -0.5
v 0.3 0.8 -0.5
v 0.5 0.7 -0.5
v 0.5 0.8 -0.5
v 0.2 0.7 -0.6
v 0.2 0.8 -0.6
v 0.3 0.7 -0.6
v 0.3 0.8 -0.6
v 0.5 0.7 -0.6
v 0.5 0.8 -0.6
v 0.6 0.7 -0.6
v 0.6 0.8 -0.6
v 0.1 0.7 -0.7
v 0.1 0.8 -0.7
v 0.2 0.7 -0.7
v 0.2 0.8 -0.7
v 0.6 0.7 -0.7
v 0.6 0.8 -0.7
v 0.7 0.7 -0.7
v 0.7 0.8 -0.7
v 0 0.8 -0.8
v 0 0.9 -0.8
v 0.2 0.8 -0.8
v 0.2 0.9 -0.8
v 0.7 0.3 -0.9
v 0.7 0.7 -0.9
v 0.7 0.8 -0.9
v 0.7 0.9 -0.9
v 0.9 0.3 -0.9
v 0.9 0.7 -0.9
v 0.9 0.8 -0.9
v 0.9 0.9 -0.9
v 0.7 0.3 -0.7
v 0.9 0.3 -0.7
v 0.7 0.3 -0.9
v 0.9 0.3 -0.9
v 0.2 0.7 -0.4
v 0.6 0.7 -0.4
v 0.1 0.7 -0.5
v 0.2 0.7 -0.5
v 0.3 0.7 -0.5
v 0.5 0.7 -0.5
v 0.6 0.7 -0.5
v 0.7 0.7 -0.5
v 0.2 0.7 -0.6
v 0.3 0.7 -0.6
v 0.5 0.7 -0.6
v 0.6 0.7 -0.6
v 0.7 0.7 -0.6
v 0.8 0.7 -0.6
v 0.1 0.7 -0.7
v 0.2 0.7 -0.7
v 0.6 0.7 -0.7
v 0.7 0.7 -0.7
v 0.8 0.7 -0.7
v 0 0.8 -0.6
v 0.1 0.8 -0.6
v 0.1 0.8 -0.7
v 0.2 0.8 -0.7
v 0 0.8 -0.8
v 0.2 0.8 -0.8
v 0.2 0.8 -0.4
v 0.6 0.8 -0.4
v 0.1 0.8 -0.5
v 0.2 0.8 -0.5
v 0.3 0.8 -0.5
v 0.5 0.8 -0.5
v 0.6 0.8 -0.5
v 0.7 0.8 -0.5
v 0.1 0.8 -0.6
v 0.2 0.8 -0.6
v 0.3 0.8 -0.6
v 0.5 0.8 -0.6
v 0.6 0.8 -0.6
v 0.7 0.8 -0.6
v 0.8 0.8 -0.6
v 0.6 0.8 -0.7
v 0.7 0.8 -0.7
v 0.8 0.8 -0.7
v 0 0.9 -0.6
v 0.2 0.9 -0.6
v 0.7 0.9 -0.7
v 0.9 0.9 -0.7
v 0 0.9 -0.8
v 0.2 0.9 -0.8
v 0.7 0.9 -0.9
v 0.9 0.9 -0.9

# faces
f 3/1/1 2/1/1 1/1/1
f 4/1/1 2/1/1 3/1/1
f 7/2/1 6/2/1 5/2/1
f 8/2/1 6/2/1 7/2/1
f 9/2/1 6/2/1 8/2/1
f 12/2/1 11/2/1 10/2/1
f 13/2/1 11/2/1 12/2/1
f 16/2/1 15/2/1 14/2/1
f 17/2/1 15/2/1 16/2/1
f 20/2/1 19/2/1 18/2/1
f 21/2/1 19/2/1 20/2/1
f 24/3/1 23/3/1 22/3/1
f 25/3/1 23/3/1 24/3/1
f 26/2/1 25/2/1 24/2/1
f 27/2/1 25/2/1 26/2/1
f 28/4/1 27/4/1 26/4/1
f 29/4/1 27/4/1 28/4/1
f 30/2/2 31/2/2 32/2/2
f 32/2/2 31/2/2 33/2/2
f 32/1/2 33/1/2 35/1/2
f 33/1/2 34/1/2 35/1/2
f 35/1/2 34/1/2 36/1/2
f 37/2/2 38/2/2 39/2/2
f 39/2/2 38/2/2 40/2/2
f 41/2/2 42/2/2 43/2/2
f 43/2/2 42/2/2 44/2/2
f 45/2/2 46/2/2 47/2/2
f 47/2/2 46/2/2 48/2/2
f 49/2/2 50/2/2 51/2/2
f 51/2/2 50/2/2 52/2/2
f 53/3/2 54/3/2 55/3/2
f 55/3/2 54/3/2 56/3/2
f 55/2/2 56/2/2 57/2/2
f 57/2/2 56/2/2 58/2/2
f 57/4/2 58/4/2 59/4/2
f 59/4/2 58/4/2 60/4/2
f 63/2/3 62/2/3 61/2/3
f 64/2/3 62/2/3 63/2/3
f 67/2/3 66/2/3 65/2/3
f 68/2/3 66/2/3 67/2/3
f 71/2/3 70/2/3 69/2/3
f 72/2/3 70/2/3 71/2/3
f 75/1/3 74/1/3 73/1/3
f 76/1/3 74/1/3 75/1/3
f 77/1/3 74/1/3 76/1/3
f 80/2/3 79/2/3 78/2/3
f 81/2/3 79/2/3 80/2/3
f 86/3/3 83/3/3 82/3/3
f 87/4/3 85/4/3 84/4/3
f 88/3/3 86/3/3 82/3/3
f 89/2/3 87/2/3 86/2/3
f 89/3/3 86/3/3 88/3/3
f 90/4/3 85/4/3 87/4/3
f 90/2/3 87/2/3 89/2/3
f 91/4/3 85/4/3 90/4/3
f 92/2/4 93/2/4 94/2/4
f 94/2/4 93/2/4 95/2/4
f 96/2/4 97/2/4 98/2/4
f 98/2/4 97/2/4 99/2/4
f 100/2/4 101/2/4 102/2/4
f 102/2/4 101/2/4 103/2/4
f 104/2/4 105/2/4 106/2/4
f 106/2/4 105/2/4 107/2/4
f 108/2/4 109/2/4 110/2/4
f 110/2/4 109/2/4 111/2/4
f 112/1/4 113/1/4 114/1/4
f 114/1/4 113/1/4 115/1/4
f 116/3/4 117/3/4 120/3/4
f 117/2/4 118/2/4 121/2/4
f 120/3/4 117/3/4 121/3/4
f 118/4/4 119/4/4 122/4/4
f 121/2/4 118/2/4 122/2/4
f 122/4/4 119/4/4 123/4/4
f 126/3/5 125/3/5 124/3/5
f 127/3/5 125/3/5 126/3/5
f 131/2/5 129/2/5 128/2/5
f 132/2/5 129/2/5 131/2/5
f 133/2/5 129/2/5 132/2/5
f 134/2/5 129/2/5 133/2/5
f 136/2/5 131/2/5 130/2/5
f 136/2/5 132/2/5 131/2/5
f 137/2/5 132/2/5 136/2/5
f 138/2/5 135/2/5 134/2/5
f 138/2/5 134/2/5 133/2/5
f 139/2/5 135/2/5 138/2/5
f 140/2/5 135/2/5 139/2/5
f 142/2/5 136/2/5 130/2/5
f 143/2/5 136/2/5 142/2/5
f 144/2/5 141/2/5 140/2/5
f 144/2/5 140/2/5 139/2/5
f 145/2/5 141/2/5 144/2/5
f 146/2/5 141/2/5 145/2/5
f 149/1/5 148/1/5 147/1/5
f 151/1/5 149/1/5 147/1/5
f 151/1/5 150/1/5 149/1/5
f 152/1/5 150/1/5 151/1/5
f 153/2/6 154/2/6 156/2/6
f 156/2/6 154/2/6 157/2/6
f 157/2/6 154/2/6 158/2/6
f 158/2/6 154/2/6 159/2/6
f 155/2/6 156/2/6 161/2/6
f 156/2/6 157/2/6 161/2/6
f 161/2/6 157/2/6 162/2/6
f 162/2/6 157/2/6 163/2/6
f 159/2/6 160/2/6 164/2/6
f 158/2/6 159/2/6 164/2/6
f 164/2/6 160/2/6 165/2/6
f 165/2/6 160/2/6 166/2/6
f 166/2/6 167/2/6 168/2/6
f 165/2/6 166/2/6 168/2/6
f 168/2/6 167/2/6 169/2/6
f 169/2/6 167/2/6 170/2/6
f 171/1/6 172/1/6 175/1/6
f 175/1/6 172/1/6 176/1/6
f 173/4/6 174/4/6 177/4/6
f 177/4/6 174/4/6 178/4/6
